HIERARCHY
ROOT Hips
{
	OFFSET	0.000000	0.000000	0.000000
	CHANNELS 6 Xposition Yposition Zposition Zrotation Xrotation Yrotation
	JOINT LeftHip
	{
		OFFSET	4.740440	-3.195970	-0.322709
		CHANNELS 3 Zrotation Xrotation Yrotation
		JOINT LeftKnee
		{
			OFFSET	-1.605680	-15.592300	1.005510
			CHANNELS 3 Zrotation Xrotation Yrotation
			JOINT LeftAnkle
			{
				OFFSET	-0.632401	-16.421000	-1.413730
				CHANNELS 3 Zrotation Xrotation Yrotation
				End Site
				{
					OFFSET	0.008423	-2.933000	-1.684880
				}
			}
		}
	}
	JOINT RightHip
	{
		OFFSET	-4.740440	-3.195970	-0.322709
		CHANNELS 3 Zrotation Xrotation Yrotation
		JOINT RightKnee
		{
			OFFSET	1.605680	-15.592300	1.005510
			CHANNELS 3 Zrotation Xrotation Yrotation
			JOINT RightAnkle
			{
				OFFSET	0.632401	-16.421000	-1.413730
				CHANNELS 3 Zrotation Xrotation Yrotation
				End Site
				{
					OFFSET	-0.008423	-2.933000	-1.684880
				}
			}
		}
	}
	JOINT Chest
	{
		OFFSET	0.000000	3.468200	0.078401
		CHANNELS 3 Zrotation Xrotation Yrotation
		JOINT LeftCollar
		{
			OFFSET	3.857650	15.070700	-0.011583
			CHANNELS 3 Zrotation Xrotation Yrotation
			JOINT LeftShoulder
			{
				OFFSET	3.979720	-1.940530	-0.165223
				CHANNELS 3 Zrotation Xrotation Yrotation
				JOINT LeftElbow
				{
					OFFSET	0.615844	-10.986600	-0.673886
					CHANNELS 3 Zrotation Xrotation Yrotation
					JOINT LeftWrist
					{
						OFFSET	0.826843	-10.854500	1.034220
						CHANNELS 3 Zrotation Xrotation Yrotation
						End Site
						{
							OFFSET	-1.679080	-8.456540	0.936217
						}
					}
				}
			}
		}
		JOINT RightCollar
		{
			OFFSET	-3.857650	15.070700	-0.011583
			CHANNELS 3 Zrotation Xrotation Yrotation
			JOINT RightShoulder
			{
				OFFSET	-3.979720	-1.940530	-0.165223
				CHANNELS 3 Zrotation Xrotation Yrotation
				JOINT RightElbow
				{
					OFFSET	-0.615845	-10.986600	-0.673886
					CHANNELS 3 Zrotation Xrotation Yrotation
					JOINT RightWrist
					{
						OFFSET	-0.826843	-10.854500	1.034220
						CHANNELS 3 Zrotation Xrotation Yrotation
						End Site
						{
							OFFSET	1.679080	-8.456540	0.936217
						}
					}
				}
			}
		}
		JOINT Neck
		{
			OFFSET	0.000000	15.101400	0.055730
			CHANNELS 3 Zrotation Xrotation Yrotation
			JOINT Head
			{
				OFFSET	0.000000	4.185120	1.488260
				CHANNELS 3 Zrotation Xrotation Yrotation
				End Site
				{
					OFFSET	0.000000	7.773420	-0.106016
				}
			}
		}
	}
}
MOTION
Frames:     21
Frame Time: 0.016667
-136.867706	36.704311	140.016479	-174.337692	173.368912	-20.096497	-3.020621	-14.645855	-11.656315	2.078649	16.253908	8.221575	0.563009	7.076451	-0.219379	-2.339769	16.660229	-2.707398	-13.218876	28.702999	42.019321	33.629753	-18.825655	-58.133865	-1.417454	8.251744	7.612724	2.230313	3.179098	12.157707	1.573837	7.689139	-14.734162	-3.471767	-1.514255	3.515808	11.777293	7.478244	-31.464664	-0.527117	0.170510	4.514193	-4.703734	5.604637	10.447601	4.158566	-1.545729	5.707220	-15.941889	-1.304593	7.316087	-13.802285	15.858703	1.119329	5.329519	15.242810	-23.256329	
-136.766129	36.686344	139.209793	-175.366241	172.139679	-20.129286	-4.965659	-12.765862	-12.224994	1.735430	17.034952	8.710479	2.259376	5.350850	-0.210198	-4.986666	14.819619	-2.993613	-15.345868	35.259541	46.380032	38.222126	-19.581535	-55.950134	-2.681011	9.333095	7.142025	2.289922	3.128657	12.053923	1.462590	7.822432	-14.435880	-3.590832	-2.140527	3.258960	11.276103	7.528133	-31.475229	-0.830940	0.025439	4.213737	-4.926098	6.223325	11.614199	4.306836	-1.089576	6.413892	-14.523007	-1.276396	7.727465	-13.808826	15.415884	1.143999	5.307694	15.075560	-23.178709	
-136.668991	36.745361	138.772095	-175.822433	171.875854	-20.174427	-5.733629	-11.557986	-11.976377	2.086914	16.564610	8.776866	2.622820	4.744812	-0.485678	-5.805909	13.872299	-2.702942	-16.159946	37.561535	48.007877	39.264362	-19.823593	-55.429462	-3.155549	9.606527	6.913428	2.251380	2.987509	12.041111	1.517831	7.862315	-14.379574	-3.654108	-2.399951	3.102188	11.093474	7.499355	-31.365168	-0.939156	-0.099768	4.185037	-4.976611	6.393438	11.843429	4.413530	0.094200	7.355952	-14.052255	-2.012213	7.344695	-13.829307	15.156659	1.145455	5.579984	14.689715	-23.355192	
-136.441559	36.724018	138.058304	-177.259598	171.512421	-20.306967	-7.151937	-10.569489	-11.355624	1.679398	16.902365	8.834558	3.340474	3.168446	-0.619787	-7.695924	10.422791	-1.462203	-19.013676	44.343586	52.756855	41.902802	-22.425600	-53.813530	-4.618656	10.012097	6.191195	2.236371	2.528641	11.814742	1.867149	7.682584	-14.411161	-3.875560	-3.142876	2.537301	10.762113	7.340744	-30.997847	-1.101882	-0.409245	4.044875	-5.072577	6.651667	12.083694	4.428758	0.205738	8.163393	-12.386117	-1.717232	8.611121	-13.865323	14.475536	1.152821	5.521005	14.264963	-22.975586	
-136.322235	36.797680	137.626251	-177.679413	171.518204	-20.316330	-7.562050	-9.553566	-11.305969	1.666674	16.201921	8.769876	3.513319	2.702430	-0.419270	-8.158876	9.133482	-1.148092	-20.099728	46.403973	54.242527	41.834320	-23.044987	-53.575874	-5.022326	10.010681	5.924370	2.243039	2.366374	11.678651	2.075758	7.543829	-14.493042	-3.974342	-3.349980	2.317659	10.739480	7.284679	-30.927206	-1.113485	-0.450191	3.934619	-5.124155	6.691281	12.106198	4.606226	0.513860	7.884677	-12.251770	-2.065697	9.129728	-13.851699	14.315718	1.104957	5.555129	14.070246	-22.913977	
-136.181946	36.827904	136.876038	-178.381287	171.677124	-20.021544	-8.284094	-8.729085	-11.615574	1.152950	16.312263	8.298781	4.022800	1.366392	0.388264	-9.030030	5.360897	-1.361329	-23.552250	50.986237	58.196960	39.792992	-23.441540	-53.051315	-5.735088	9.783042	4.688583	2.404287	2.012803	11.314035	2.823739	6.888128	-14.798015	-4.237607	-3.746557	1.620262	11.035915	7.083209	-30.936783	-0.943804	-0.416986	3.694084	-5.125681	6.833336	11.937534	4.583723	0.519280	8.227435	-11.997096	-2.036405	8.683875	-13.609639	14.122231	0.950027	5.633191	13.636317	-22.581978	
-136.130417	36.862782	136.580872	-178.438263	171.649384	-19.821901	-8.418928	-8.115100	-11.799120	1.062519	16.160839	8.115716	4.144962	0.920317	0.651504	-9.195079	4.249020	-1.843783	-25.000195	52.018246	59.675999	39.480785	-23.558775	-52.888783	-5.868499	9.702690	3.815656	2.490442	2.021315	11.546791	3.108938	6.610251	-14.874104	-4.280043	-3.831114	1.386801	11.171492	6.987208	-30.994074	-0.799278	-0.305007	3.958385	-5.137162	6.924194	11.848401	4.606290	0.519875	8.131060	-12.271744	-2.035196	7.511086	-13.386162	14.176855	0.839068	5.384822	13.519247	-22.081726	
-135.945587	36.964382	135.712769	-178.469711	171.312378	-19.056490	-8.703222	-5.918885	-12.285810	0.924304	15.643176	7.875556	4.377087	-0.361646	0.968939	-9.727657	0.455189	-3.461802	-29.047440	54.969391	63.647671	38.729507	-23.522118	-53.374931	-5.906210	9.885824	2.415370	2.621068	1.831771	10.872166	3.748969	5.639602	-15.013554	-4.207357	-4.008729	0.955711	11.654775	6.684400	-31.210249	-0.684770	-0.083659	3.275769	-5.170317	7.121142	11.550710	4.646050	0.438821	7.865551	-12.887034	-2.411301	7.336403	-13.176039	14.357990	0.723684	5.555299	13.188598	-22.061382	
-135.864731	36.998260	135.439880	-178.502060	171.178848	-18.787321	-8.766897	-5.137018	-12.306359	0.933380	15.392570	7.815696	4.416257	-0.772496	0.909290	-9.920415	-1.326557	-3.806584	-30.246029	56.259544	64.735733	38.100838	-23.284904	-53.911625	-5.904922	9.933561	1.872807	2.666075	1.776603	10.721556	3.901654	5.324292	-15.000745	-4.120986	-4.113313	0.894020	11.795052	6.606731	-31.253040	-0.680038	-0.005558	3.105293	-5.201404	7.194232	11.463243	4.632433	0.389954	7.802653	-13.139677	-2.547961	6.942959	-13.077402	14.442818	0.635085	5.533489	13.114556	-21.950943	
-135.603378	37.086712	134.652069	-178.681702	170.751282	-18.107742	-8.970674	-2.713318	-11.907166	1.060478	14.428831	7.303156	4.615731	-1.868523	0.655560	-10.264762	-2.787799	-4.408075	-29.335075	56.140697	62.897007	34.927437	-22.479179	-56.530170	-5.981733	10.172071	0.522460	2.884197	1.375532	10.175448	4.352086	4.533845	-14.779027	-3.862766	-4.715959	0.843472	12.157492	6.427554	-31.041161	-0.702148	0.054548	2.501546	-5.333618	7.434773	11.157616	4.638213	0.244414	7.726228	-13.923298	-3.159254	6.072382	-12.607592	14.492872	0.261708	5.392224	12.805055	-21.560280	
-135.508530	37.113380	134.395050	-178.710098	170.599014	-17.929483	-8.990904	-1.903289	-11.735025	1.099790	14.130112	7.005314	4.648145	-2.240589	0.710832	-10.255752	-4.593493	-4.529329	-29.733391	57.054169	63.097965	33.531689	-22.167728	-57.627563	-5.987594	10.295811	0.144481	3.001836	1.207060	9.985518	4.496009	4.295667	-14.690050	-3.799954	-5.004565	0.876758	12.257116	6.351013	-30.843773	-0.686537	0.026515	2.304913	-5.434886	7.535626	11.029762	4.686116	0.151873	7.746260	-14.177629	-3.331008	5.903434	-12.414396	14.431280	0.143883	5.359146	12.676813	-21.434687	
-135.223221	37.181923	133.636261	-178.763107	170.239288	-17.455257	-8.979815	0.352777	-11.510587	1.160757	13.326531	6.192386	4.621081	-3.358020	1.148742	-10.304428	-6.093349	-4.846115	-26.197678	55.693066	59.522331	28.900658	-21.081861	-61.250309	-5.979180	10.704727	-0.804723	3.356976	0.578180	9.352693	5.072966	3.503947	-14.392621	-3.723857	-6.012728	0.982791	12.468475	6.089210	-30.005636	-0.616732	-0.108824	1.650157	-5.744051	7.767960	10.622985	4.836224	-0.113996	7.791856	-14.870592	-3.874710	5.550395	-11.860072	13.995321	-0.302232	5.365575	12.275708	-20.964056	
-135.125916	37.199837	133.393921	-178.799881	170.117905	-17.288645	-8.958302	1.063356	-11.567777	1.111953	13.081164	6.093675	4.589945	-3.738826	1.218753	-10.186106	-7.815363	-4.740519	-25.457827	56.216225	58.847996	27.222393	-20.656624	-62.408684	-6.001194	10.857640	-1.103786	3.473775	0.355592	9.151252	5.326294	3.212351	-14.292212	-3.744704	-6.388043	0.973472	12.517863	5.976166	-29.680315	-0.546705	-0.192711	1.480928	-5.875001	7.871940	10.437692	4.869567	-0.167948	7.816031	-15.070189	-4.070225	5.415845	-11.161596	13.549347	-0.953262	4.794021	12.416566	-20.376175	
-134.819946	37.239208	132.648651	-178.950363	169.733475	-16.702190	-8.868834	3.217514	-12.010678	0.872076	12.358462	6.072424	4.520530	-4.877118	1.426929	-10.239632	-9.136746	-4.714828	-19.806362	53.629978	54.203121	21.862915	-19.234776	-65.688736	-6.072492	11.310517	-2.033263	3.776370	-0.243309	8.624518	6.249954	2.146991	-14.076259	-3.932835	-7.521353	0.737638	12.599986	5.601687	-28.756002	-0.349058	-0.381219	1.033948	-6.259984	8.148068	9.952703	4.941858	-0.303060	7.819726	-15.589608	-4.497843	4.837115	-10.928315	13.193419	-0.994623	5.169189	11.665391	-19.746477	
-134.711044	37.252953	132.411499	-178.950363	169.733475	-16.702190	-8.724888	3.778767	-12.009549	0.758123	12.154656	6.024353	4.492883	-5.275578	1.550096	-9.856343	-10.629933	-4.012721	-17.936890	53.556789	52.400726	19.941948	-18.708122	-66.628998	-6.038094	11.299959	-2.179121	3.847011	-0.410557	8.495808	6.624124	1.751689	-13.990217	-4.039580	-7.885614	0.554400	12.647209	5.459854	-28.528221	-0.292840	-0.386237	0.948119	-6.335001	8.291360	9.485100	4.899368	-0.298661	7.777065	-15.873012	-4.653261	4.368176	-10.625837	12.894667	-1.066831	5.035798	11.568071	-19.381792	
-134.351913	37.274418	131.689606	-179.113144	169.738159	-16.313816	-8.389154	5.416671	-12.433800	0.410425	11.574005	5.775800	4.460190	-6.429775	2.046477	-9.666714	-11.847408	-3.854764	-11.836931	49.274300	47.678730	14.414795	-16.833981	-68.949120	-6.016362	11.271547	-2.951610	3.964451	-0.860321	8.193136	7.877688	0.359751	-13.819190	-4.393394	-8.910455	-0.118929	12.827327	5.088935	-28.304344	-0.123753	-0.354924	0.787656	-6.669532	8.488578	9.288493	4.833518	-0.341365	7.959227	-16.135406	-4.688108	3.919704	-10.487348	12.552676	-0.638307	5.562728	10.605587	-18.296659	
-134.227020	37.281895	131.447189	-179.126465	169.753052	-16.206942	-8.198333	5.967453	-12.559455	0.259857	11.373734	5.740884	4.450139	-6.830348	2.154701	-9.287084	-12.786224	-3.839887	-6.758502	44.031639	43.791992	13.595048	-11.475850	-70.538612	-5.964522	11.244451	-3.171218	3.967504	-0.987772	8.092445	8.309856	-0.155747	-13.729431	-4.503993	-9.204919	-0.397141	12.881980	4.971109	-28.307581	-0.072426	-0.299824	0.772320	-6.714774	8.620051	9.042436	4.728760	-0.380364	8.093960	-16.244509	-4.675764	3.749020	-10.387410	12.434747	-0.406726	5.693014	10.279502	-17.895678	
-133.846085	37.273930	130.711624	-179.387650	169.949905	-15.818674	-7.780217	7.384289	-12.850038	-0.153492	10.814953	5.508346	4.269919	-7.983757	2.425333	-9.140866	-13.800096	-4.423502	-4.163923	40.479248	41.957645	8.837860	-10.953092	-70.278969	-5.939649	10.934485	-3.838837	3.937882	-1.364250	7.860312	9.443802	-1.715014	-13.484152	-4.566298	-9.977079	-1.085514	12.865489	4.649681	-28.473427	0.028889	-0.157644	0.793279	-6.956065	8.646675	9.011035	4.673544	-0.024716	7.897377	-16.512066	-4.638673	3.505257	-10.115538	12.101753	0.507139	6.102002	9.373743	-16.599972	
-133.716263	37.259312	130.448303	-179.620300	170.234299	-15.650011	-7.707627	7.599793	-12.990020	-0.294961	10.648075	5.444866	4.081155	-8.349466	2.480830	-8.853471	-14.836392	-4.945901	-1.955820	36.805645	40.602951	8.100485	-7.504097	-70.459450	-5.852463	10.558246	-4.168811	3.889242	-1.647347	7.721571	9.696250	-1.981430	-13.288257	-4.534877	-10.267829	-1.220399	12.854584	4.547051	-28.522562	-0.081798	-0.114200	0.860686	-6.974619	8.783096	8.901748	4.572601	0.018630	7.969419	-16.506630	-4.623588	3.516024	-10.178584	12.001649	0.907290	6.226732	9.119056	-16.099915	
-133.330048	37.220432	129.750168	-179.776978	170.375320	-15.601940	-7.266019	8.992091	-13.023273	-0.616496	10.211576	5.465861	3.852057	-9.505567	2.463683	-8.402054	-15.655103	-5.401161	-0.066634	33.031574	39.588692	4.329530	-7.127738	-69.331955	-5.776448	10.359211	-4.329546	3.977204	-2.070339	7.436121	10.391537	-3.257077	-12.780010	-4.344708	-11.284997	-1.402284	12.873190	4.358091	-28.496548	-0.006253	-0.126089	0.815420	-7.201375	8.920615	8.865332	4.489838	0.437742	8.056138	-16.301996	-4.547790	3.733539	-9.931270	11.620180	1.872052	6.562310	8.380181	-14.343925	
-133.190613	37.163692	129.474442	179.664764	170.698715	-15.519489	-7.531347	9.078220	-13.125823	-0.745739	10.046373	5.560431	3.576461	-9.750627	2.398616	-8.524219	-16.313339	-5.596104	2.132490	28.862822	38.382263	3.740901	-3.819800	-69.090309	-6.049143	9.858383	-4.470407	4.008776	-2.264040	7.291965	10.503079	-3.522016	-12.491145	-4.288820	-11.660137	-1.370044	12.921866	4.285242	-28.355263	-0.092751	-0.103891	0.850663	-7.207874	9.058347	8.714070	4.392082	0.521604	8.234212	-15.899212	-4.148711	4.001669	-9.888458	11.488363	2.281872	6.578791	8.156729	-13.751705	
